<?xml version="1.0" encoding="UTF-8"?>
<svg xmlns="http://www.w3.org/2000/svg" xmlns:xlink="http://www.w3.org/1999/xlink" width="576" height="720" viewBox="0 0 576 720">
<rect x="-57.6" y="-72" width="691.2" height="864" fill="rgb(100%, 100%, 100%)" fill-opacity="1"/>
<path fill="none" stroke-width="0.75" stroke-linecap="round" stroke-linejoin="round" stroke="rgb(0%, 0%, 0%)" stroke-opacity="1" stroke-miterlimit="10" d="M 557.367188 333.332031 C 557.367188 336.933594 551.964844 336.933594 551.964844 333.332031 C 551.964844 329.734375 557.367188 329.734375 557.367188 333.332031 "/>
<path fill="none" stroke-width="30" stroke-linecap="round" stroke-linejoin="round" stroke="rgb(0%, 0%, 0%)" stroke-opacity="1" stroke-miterlimit="10" d="M 448 333.332031 L 368 194.769531 "/>
<path fill="none" stroke-width="30" stroke-linecap="round" stroke-linejoin="round" stroke="rgb(0%, 0%, 0%)" stroke-opacity="1" stroke-miterlimit="10" d="M 368 194.769531 L 208 194.769531 "/>
<path fill="none" stroke-width="30" stroke-linecap="round" stroke-linejoin="round" stroke="rgb(0%, 0%, 0%)" stroke-opacity="1" stroke-miterlimit="10" d="M 208 194.769531 L 128 333.332031 "/>
<path fill="none" stroke-width="30" stroke-linecap="round" stroke-linejoin="round" stroke="rgb(0%, 0%, 0%)" stroke-opacity="1" stroke-miterlimit="10" d="M 128 333.332031 L 208 471.898438 "/>
<path fill="none" stroke-width="30" stroke-linecap="round" stroke-linejoin="round" stroke="rgb(0%, 0%, 0%)" stroke-opacity="1" stroke-miterlimit="10" d="M 208 471.898438 L 368 471.898438 "/>
<path fill="none" stroke-width="30" stroke-linecap="round" stroke-linejoin="round" stroke="rgb(0%, 0%, 0%)" stroke-opacity="1" stroke-miterlimit="10" d="M 368 471.898438 L 448 333.332031 "/>
<path fill="none" stroke-width="60" stroke-linecap="round" stroke-linejoin="round" stroke="rgb(100%, 100%, 100%)" stroke-opacity="1" stroke-miterlimit="10" d="M 368 194.769531 L 288 333.332031 "/>
<path fill="none" stroke-width="30" stroke-linecap="round" stroke-linejoin="round" stroke="rgb(0%, 0%, 0%)" stroke-opacity="1" stroke-miterlimit="10" d="M 448 333.332031 L 368 194.769531 "/>
<path fill="none" stroke-width="30" stroke-linecap="round" stroke-linejoin="round" stroke="rgb(0%, 0%, 0%)" stroke-opacity="1" stroke-miterlimit="10" d="M 368 194.769531 L 288 333.332031 "/>
<path fill-rule="nonzero" fill="rgb(0%, 0%, 54.509804%)" fill-opacity="1" d="M 90.859375 518.351562 L 98.363281 518.351562 L 98.363281 570.757812 L 90.859375 570.757812 Z M 90.859375 518.351562 "/>
<path fill-rule="nonzero" fill="rgb(10.980392%, 0%, 48.235294%)" fill-opacity="1" d="M 115.882812 536.246094 L 115.882812 540.632812 L 116.808594 539.671875 L 117.761719 538.8125 L 118.738281 538.050781 L 119.738281 537.394531 L 120.765625 536.835938 L 121.816406 536.382812 L 122.894531 536.027344 L 123.996094 535.773438 L 125.121094 535.621094 L 126.273438 535.570312 L 126.914062 535.585938 L 127.542969 535.636719 L 128.167969 535.722656 L 128.78125 535.839844 L 129.386719 535.992188 L 129.980469 536.179688 L 130.566406 536.398438 L 131.144531 536.652344 L 131.714844 536.9375 L 132.273438 537.257812 L 132.816406 537.601562 L 133.328125 537.96875 L 133.816406 538.363281 L 134.277344 538.78125 L 134.710938 539.226562 L 135.117188 539.699219 L 135.496094 540.195312 L 135.851562 540.714844 L 136.175781 541.261719 L 136.472656 541.835938 L 136.753906 542.445312 L 137 543.125 L 137.21875 543.875 L 137.410156 544.691406 L 137.570312 545.578125 L 137.703125 546.53125 L 137.804688 547.550781 L 137.878906 548.640625 L 137.921875 549.800781 L 137.9375 551.023438 L 137.9375 570.757812 L 131.109375 570.757812 L 131.109375 551.101562 L 131.09375 550.074219 L 131.046875 549.105469 L 130.964844 548.199219 L 130.851562 547.355469 L 130.707031 546.570312 L 130.53125 545.847656 L 130.320312 545.183594 L 130.078125 544.582031 L 129.804688 544.042969 L 129.496094 543.5625 L 129.152344 543.125 L 128.765625 542.738281 L 128.332031 542.394531 L 127.859375 542.097656 L 127.339844 541.84375 L 126.777344 541.636719 L 126.171875 541.476562 L 125.523438 541.363281 L 124.832031 541.296875 L 124.097656 541.273438 L 123.144531 541.320312 L 122.21875 541.464844 L 121.324219 541.707031 L 120.457031 542.046875 L 119.621094 542.480469 L 118.816406 543.015625 L 118.039062 543.644531 L 117.289062 544.371094 L 116.570312 545.191406 L 115.882812 546.109375 L 115.882812 570.757812 L 108.902344 570.757812 L 108.902344 536.246094 Z M 115.882812 536.246094 "/>
<path fill-rule="nonzero" fill="rgb(21.960784%, 0%, 42.352941%)" fill-opacity="1" d="M 145.777344 568.28125 L 145.777344 560.929688 L 146.355469 561.324219 L 146.9375 561.707031 L 147.519531 562.074219 L 148.105469 562.429688 L 148.695312 562.765625 L 149.285156 563.089844 L 149.875 563.394531 L 150.46875 563.6875 L 151.066406 563.964844 L 151.667969 564.230469 L 152.265625 564.464844 L 152.84375 564.675781 L 153.402344 564.859375 L 153.941406 565.019531 L 154.460938 565.15625 L 154.960938 565.269531 L 155.441406 565.355469 L 155.902344 565.417969 L 156.34375 565.453125 L 156.769531 565.46875 L 157.191406 565.457031 L 157.597656 565.425781 L 157.996094 565.371094 L 158.382812 565.300781 L 158.757812 565.203125 L 159.117188 565.089844 L 159.46875 564.953125 L 159.804688 564.792969 L 160.128906 564.617188 L 160.445312 564.417969 L 160.734375 564.203125 L 160.996094 563.980469 L 161.226562 563.75 L 161.429688 563.511719 L 161.597656 563.261719 L 161.734375 563.007812 L 161.84375 562.742188 L 161.921875 562.472656 L 161.964844 562.191406 L 161.980469 561.902344 L 161.972656 561.609375 L 161.941406 561.324219 L 161.890625 561.050781 L 161.820312 560.785156 L 161.730469 560.535156 L 161.617188 560.292969 L 161.484375 560.058594 L 161.332031 559.839844 L 161.160156 559.628906 L 160.96875 559.425781 L 160.75 559.214844 L 160.484375 558.988281 L 160.175781 558.742188 L 159.816406 558.480469 L 159.414062 558.199219 L 158.960938 557.902344 L 158.464844 557.585938 L 157.921875 557.253906 L 157.328125 556.90625 L 156.691406 556.539062 L 155.417969 555.816406 L 154.234375 555.113281 L 153.140625 554.429688 L 152.136719 553.773438 L 151.226562 553.136719 L 150.40625 552.519531 L 149.675781 551.925781 L 149.035156 551.355469 L 148.484375 550.804688 L 148.027344 550.273438 L 147.644531 549.746094 L 147.296875 549.207031 L 146.996094 548.660156 L 146.730469 548.101562 L 146.507812 547.535156 L 146.328125 546.960938 L 146.183594 546.378906 L 146.082031 545.785156 L 146.023438 545.183594 L 146.003906 544.574219 L 146.03125 543.792969 L 146.125 543.042969 L 146.277344 542.320312 L 146.496094 541.625 L 146.769531 540.964844 L 147.109375 540.328125 L 147.507812 539.722656 L 147.972656 539.148438 L 148.492188 538.601562 L 149.078125 538.082031 L 149.71875 537.605469 L 150.394531 537.179688 L 151.105469 536.800781 L 151.851562 536.476562 L 152.632812 536.199219 L 153.449219 535.972656 L 154.300781 535.796875 L 155.1875 535.671875 L 156.109375 535.597656 L 157.066406 535.570312 L 158.082031 535.597656 L 159.105469 535.683594 L 160.128906 535.828125 L 161.160156 536.027344 L 162.199219 536.285156 L 163.238281 536.597656 L 164.285156 536.96875 L 165.339844 537.394531 L 166.394531 537.878906 L 167.457031 538.421875 L 167.457031 545.171875 L 166.265625 544.476562 L 165.117188 543.851562 L 164.011719 543.296875 L 162.953125 542.820312 L 161.933594 542.417969 L 160.964844 542.085938 L 160.035156 541.828125 L 159.152344 541.644531 L 158.3125 541.535156 L 157.519531 541.496094 L 157.128906 541.507812 L 156.753906 541.53125 L 156.394531 541.574219 L 156.046875 541.636719 L 155.71875 541.714844 L 155.402344 541.808594 L 155.101562 541.921875 L 154.816406 542.050781 L 154.546875 542.195312 L 154.292969 542.359375 L 154.0625 542.53125 L 153.859375 542.710938 L 153.679688 542.90625 L 153.523438 543.109375 L 153.390625 543.324219 L 153.285156 543.554688 L 153.199219 543.792969 L 153.140625 544.039062 L 153.105469 544.300781 L 153.09375 544.574219 L 153.101562 544.8125 L 153.136719 545.050781 L 153.191406 545.285156 L 153.265625 545.515625 L 153.363281 545.746094 L 153.484375 545.972656 L 153.625 546.199219 L 153.789062 546.421875 L 153.972656 546.644531 L 154.179688 546.863281 L 154.421875 547.082031 L 154.695312 547.316406 L 155.003906 547.554688 L 155.34375 547.804688 L 155.71875 548.0625 L 156.125 548.328125 L 156.5625 548.605469 L 157.035156 548.890625 L 157.542969 549.183594 L 158.082031 549.488281 L 160.519531 550.875 L 162.160156 551.859375 L 163.625 552.867188 L 164.917969 553.894531 L 166.039062 554.945312 L 166.988281 556.015625 L 167.765625 557.105469 L 168.371094 558.21875 L 168.800781 559.351562 L 169.058594 560.503906 L 169.148438 561.679688 L 169.113281 562.511719 L 169.011719 563.3125 L 168.847656 564.085938 L 168.613281 564.828125 L 168.3125 565.542969 L 167.945312 566.226562 L 167.511719 566.878906 L 167.011719 567.5 L 166.441406 568.09375 L 165.808594 568.65625 L 165.128906 569.167969 L 164.410156 569.628906 L 163.65625 570.03125 L 162.859375 570.382812 L 162.027344 570.679688 L 161.15625 570.925781 L 160.25 571.113281 L 159.300781 571.25 L 158.316406 571.328125 L 157.292969 571.355469 L 156.683594 571.351562 L 156.089844 571.332031 L 155.507812 571.296875 L 154.941406 571.253906 L 154.386719 571.195312 L 153.84375 571.125 L 153.316406 571.042969 L 152.804688 570.949219 L 152.304688 570.839844 L 151.816406 570.71875 L 151.324219 570.574219 L 150.808594 570.40625 L 150.265625 570.214844 L 149.699219 570.003906 L 149.105469 569.769531 L 148.488281 569.515625 L 147.847656 569.238281 L 147.183594 568.941406 L 146.492188 568.621094 Z M 145.777344 568.28125 "/>
<path fill-rule="nonzero" fill="rgb(33.333333%, 0%, 36.078431%)" fill-opacity="1" d="M 178.035156 518.351562 L 185.539062 518.351562 L 185.539062 570.757812 L 178.035156 570.757812 Z M 178.035156 518.351562 "/>
<path fill-rule="nonzero" fill="rgb(44.313725%, 0%, 30.196078%)" fill-opacity="1" d="M 197.242188 570.679688 L 197.242188 518.351562 L 214.910156 518.351562 L 217.003906 518.386719 L 219.007812 518.480469 L 220.921875 518.644531 L 222.75 518.871094 L 224.484375 519.160156 L 226.132812 519.515625 L 227.691406 519.933594 L 229.15625 520.417969 L 230.539062 520.964844 L 231.828125 521.578125 L 233.046875 522.246094 L 234.214844 522.976562 L 235.332031 523.765625 L 236.402344 524.617188 L 237.417969 525.527344 L 238.382812 526.5 L 239.296875 527.53125 L 240.15625 528.625 L 240.96875 529.78125 L 241.730469 530.996094 L 242.429688 532.25 L 243.054688 533.53125 L 243.605469 534.832031 L 244.082031 536.15625 L 244.488281 537.503906 L 244.816406 538.871094 L 245.074219 540.261719 L 245.257812 541.675781 L 245.371094 543.113281 L 245.40625 544.574219 L 245.386719 545.621094 L 245.324219 546.65625 L 245.222656 547.683594 L 245.082031 548.703125 L 244.898438 549.710938 L 244.675781 550.714844 L 244.414062 551.703125 L 244.109375 552.6875 L 243.765625 553.660156 L 243.378906 554.625 L 242.957031 555.574219 L 242.5 556.5 L 242.011719 557.402344 L 241.484375 558.28125 L 240.921875 559.136719 L 240.328125 559.96875 L 239.699219 560.777344 L 239.035156 561.5625 L 238.335938 562.328125 L 237.605469 563.066406 L 236.828125 563.796875 L 236.023438 564.492188 L 235.195312 565.152344 L 234.34375 565.773438 L 233.46875 566.359375 L 232.566406 566.90625 L 231.640625 567.417969 L 230.691406 567.890625 L 229.714844 568.328125 L 228.714844 568.730469 L 228.125 568.957031 L 227.546875 569.164062 L 226.980469 569.359375 L 226.421875 569.539062 L 225.871094 569.707031 L 225.332031 569.855469 L 224.804688 569.992188 L 224.285156 570.109375 L 223.773438 570.214844 L 223.273438 570.304688 L 222.734375 570.378906 L 222.105469 570.441406 L 221.382812 570.496094 L 220.574219 570.546875 L 219.671875 570.585938 L 218.683594 570.621094 L 217.601562 570.648438 L 216.433594 570.664062 L 215.171875 570.675781 L 213.820312 570.679688 Z M 214.121094 525.03125 L 204.746094 525.03125 L 204.746094 564.003906 L 214.347656 564.003906 L 215.449219 563.996094 L 216.496094 563.972656 L 217.496094 563.9375 L 218.445312 563.882812 L 219.34375 563.816406 L 220.195312 563.734375 L 220.992188 563.636719 L 221.742188 563.523438 L 222.441406 563.394531 L 223.085938 563.253906 L 223.699219 563.09375 L 224.289062 562.921875 L 224.859375 562.746094 L 225.410156 562.5625 L 225.9375 562.371094 L 226.445312 562.171875 L 226.929688 561.96875 L 227.398438 561.753906 L 227.839844 561.53125 L 228.265625 561.304688 L 228.679688 561.058594 L 229.089844 560.800781 L 229.492188 560.535156 L 229.882812 560.257812 L 230.269531 559.972656 L 230.648438 559.671875 L 231.019531 559.367188 L 231.382812 559.046875 L 231.742188 558.71875 L 232.089844 558.378906 L 233.144531 557.222656 L 234.089844 556.007812 L 234.921875 554.734375 L 235.644531 553.402344 L 236.253906 552.011719 L 236.753906 550.558594 L 237.140625 549.046875 L 237.417969 547.476562 L 237.585938 545.847656 L 237.640625 544.160156 L 237.585938 542.503906 L 237.414062 540.910156 L 237.128906 539.378906 L 236.730469 537.90625 L 236.214844 536.5 L 235.589844 535.152344 L 234.847656 533.871094 L 233.992188 532.648438 L 233.023438 531.492188 L 231.941406 530.394531 L 231.511719 530.003906 L 231.074219 529.628906 L 230.621094 529.265625 L 230.15625 528.917969 L 229.679688 528.585938 L 229.191406 528.265625 L 228.6875 527.960938 L 228.171875 527.667969 L 227.640625 527.394531 L 227.101562 527.128906 L 226.5625 526.882812 L 226.03125 526.65625 L 225.503906 526.441406 L 224.980469 526.25 L 224.464844 526.070312 L 223.953125 525.910156 L 223.449219 525.769531 L 222.949219 525.640625 L 222.453125 525.535156 L 221.960938 525.441406 L 221.445312 525.363281 L 220.867188 525.292969 L 220.230469 525.230469 L 219.539062 525.179688 L 218.78125 525.132812 L 217.96875 525.097656 L 217.097656 525.066406 L 216.164062 525.046875 L 215.171875 525.035156 Z M 214.121094 525.03125 "/>
<path fill-rule="nonzero" fill="rgb(55.294118%, 0%, 23.921569%)" fill-opacity="1" d="M 254.785156 518.351562 L 284.492188 518.351562 L 284.492188 525.03125 L 262.285156 525.03125 L 262.285156 541.011719 L 283.742188 541.011719 L 283.742188 547.722656 L 262.285156 547.722656 L 262.285156 564.003906 L 285.207031 564.003906 L 285.207031 570.679688 L 254.785156 570.679688 Z M 254.785156 518.351562 "/>
<path fill-rule="nonzero" fill="rgb(77.647059%, 0%, 11.764706%)" fill-opacity="1" d="M 375.90625 561.152344 L 375.90625 570.757812 L 335.957031 570.757812 L 335.957031 518.351562 L 349.011719 518.351562 L 349.011719 561.152344 Z M 375.90625 561.152344 "/>
<path fill-rule="nonzero" fill="rgb(88.627451%, 0%, 5.882353%)" fill-opacity="1" d="M 413.867188 518.351562 L 437.125 570.757812 L 423.097656 570.757812 L 418.78125 560.402344 L 395.335938 560.402344 L 391.4375 570.757812 L 377.59375 570.757812 L 398.714844 518.351562 Z M 414.917969 551.25 L 406.476562 530.882812 L 398.789062 551.25 Z M 414.917969 551.25 "/>
<path fill-rule="nonzero" fill="rgb(100%, 0%, 0%)" fill-opacity="1" d="M 443.203125 518.351562 L 465.859375 518.351562 L 467.445312 518.390625 L 468.960938 518.507812 L 470.40625 518.703125 L 471.78125 518.976562 L 473.089844 519.328125 L 474.324219 519.757812 L 475.492188 520.265625 L 476.589844 520.851562 L 477.617188 521.511719 L 478.574219 522.253906 L 479.457031 523.046875 L 480.25 523.871094 L 480.945312 524.722656 L 481.550781 525.601562 L 482.0625 526.511719 L 482.480469 527.449219 L 482.808594 528.414062 L 483.039062 529.410156 L 483.179688 530.429688 L 483.226562 531.480469 L 483.152344 532.816406 L 482.9375 534.085938 L 482.582031 535.292969 L 482.078125 536.433594 L 481.433594 537.511719 L 480.648438 538.527344 L 479.714844 539.476562 L 478.640625 540.363281 L 477.421875 541.1875 L 476.0625 541.949219 L 477.117188 542.253906 L 478.121094 542.605469 L 479.074219 543 L 479.972656 543.4375 L 480.824219 543.917969 L 481.625 544.441406 L 482.375 545.007812 L 483.070312 545.621094 L 483.71875 546.277344 L 484.3125 546.972656 L 484.863281 547.707031 L 485.351562 548.460938 L 485.785156 549.242188 L 486.164062 550.046875 L 486.480469 550.875 L 486.738281 551.726562 L 486.941406 552.605469 L 487.085938 553.503906 L 487.171875 554.429688 L 487.203125 555.375 L 487.15625 556.714844 L 487.015625 558.003906 L 486.78125 559.242188 L 486.453125 560.429688 L 486.03125 561.566406 L 485.515625 562.652344 L 484.90625 563.683594 L 484.199219 564.667969 L 483.402344 565.597656 L 482.511719 566.480469 L 481.53125 567.292969 L 480.460938 568.019531 L 479.300781 568.660156 L 478.054688 569.214844 L 476.71875 569.6875 L 475.292969 570.070312 L 473.78125 570.371094 L 472.179688 570.585938 L 470.488281 570.714844 L 468.710938 570.757812 L 443.203125 570.757812 Z M 456.253906 527.957031 L 456.253906 539.171875 L 463.082031 539.171875 L 463.699219 539.15625 L 464.289062 539.105469 L 464.847656 539.027344 L 465.382812 538.914062 L 465.886719 538.769531 L 466.363281 538.589844 L 466.8125 538.382812 L 467.234375 538.140625 L 467.628906 537.867188 L 467.996094 537.558594 L 468.332031 537.226562 L 468.632812 536.878906 L 468.894531 536.515625 L 469.125 536.136719 L 469.320312 535.738281 L 469.476562 535.324219 L 469.601562 534.894531 L 469.6875 534.449219 L 469.742188 533.988281 L 469.757812 533.507812 L 469.742188 533.035156 L 469.6875 532.582031 L 469.601562 532.140625 L 469.476562 531.71875 L 469.320312 531.3125 L 469.125 530.925781 L 468.894531 530.550781 L 468.632812 530.195312 L 468.332031 529.855469 L 467.996094 529.53125 L 467.628906 529.230469 L 467.234375 528.964844 L 466.8125 528.726562 L 466.363281 528.523438 L 465.886719 528.351562 L 465.382812 528.207031 L 464.847656 528.097656 L 464.289062 528.019531 L 463.699219 527.972656 L 463.082031 527.957031 Z M 456.253906 548.773438 L 456.253906 561.152344 L 463.609375 561.152344 L 464.621094 561.140625 L 465.574219 561.097656 L 466.472656 561.023438 L 467.3125 560.925781 L 468.089844 560.796875 L 468.8125 560.640625 L 469.472656 560.453125 L 470.078125 560.242188 L 470.621094 560 L 471.109375 559.726562 L 471.542969 559.414062 L 471.933594 559.058594 L 472.277344 558.660156 L 472.574219 558.222656 L 472.824219 557.738281 L 473.03125 557.214844 L 473.191406 556.648438 L 473.304688 556.042969 L 473.375 555.394531 L 473.398438 554.703125 L 473.375 554.164062 L 473.3125 553.652344 L 473.203125 553.164062 L 473.050781 552.695312 L 472.855469 552.253906 L 472.613281 551.832031 L 472.332031 551.4375 L 472.003906 551.0625 L 471.636719 550.714844 L 471.222656 550.386719 L 470.773438 550.082031 L 470.292969 549.808594 L 469.785156 549.566406 L 469.246094 549.355469 L 468.679688 549.179688 L 468.085938 549.03125 L 467.460938 548.917969 L 466.804688 548.839844 L 466.121094 548.789062 L 465.40625 548.773438 Z M 456.253906 548.773438 "/>
</svg>
